<svg width="596" height="499" viewBox="0 0 596 499" fill="none" xmlns="http://www.w3.org/2000/svg">
    <!-- <svg width="596" height="480" viewBox="0 0 596 499" fill="none" xmlns="http://www.w3.org/2000/svg"> -->
	<g opacity="0.6">
		<path d="M23.0074 0.667725V498.495" stroke="white" stroke-width="0.498444" stroke-miterlimit="10" />
		<path d="M47.9941 0.667725V498.495" stroke="white" stroke-width="0.498444" stroke-miterlimit="10" />
		<path d="M72.9797 0.667725V498.495" stroke="white" stroke-width="0.498444" stroke-miterlimit="10" />
		<path d="M97.9728 0.667725V498.495" stroke="white" stroke-width="0.498444" stroke-miterlimit="10" />
		<path d="M122.987 0.667725V498.495" stroke="white" stroke-width="0.498444" stroke-miterlimit="10" />
		<path d="M147.972 0.667725V498.495" stroke="white" stroke-width="0.498444" stroke-miterlimit="10" />
		<path d="M172.958 0.667725V498.495" stroke="white" stroke-width="0.498444" stroke-miterlimit="10" />
		<path d="M197.949 0.667725V498.495" stroke="white" stroke-width="0.498444" stroke-miterlimit="10" />
		<path d="M222.956 0.667725V498.495" stroke="white" stroke-width="0.498444" stroke-miterlimit="10" />
		<path d="M247.942 0.667725V498.495" stroke="white" stroke-width="0.498444" stroke-miterlimit="10" />
		<path d="M272.937 0.667725V498.495" stroke="white" stroke-width="0.498444" stroke-miterlimit="10" />
		<path d="M297.94 0.667725V498.495" stroke="white" stroke-width="0.498444" stroke-miterlimit="10" />
		<path d="M322.936 0.667725V498.495" stroke="white" stroke-width="0.498444" stroke-miterlimit="10" />
		<path d="M347.921 0.667725V498.495" stroke="white" stroke-width="0.498444" stroke-miterlimit="10" />
		<path d="M372.912 0.667725V498.495" stroke="white" stroke-width="0.498444" stroke-miterlimit="10" />
		<path d="M397.92 0.667725V498.495" stroke="white" stroke-width="0.498444" stroke-miterlimit="10" />
		<path d="M422.905 0.667725V498.495" stroke="white" stroke-width="0.498444" stroke-miterlimit="10" />
		<path d="M447.895 0.667725V498.495" stroke="white" stroke-width="0.498444" stroke-miterlimit="10" />
		<path d="M472.89 0.667725V498.495" stroke="white" stroke-width="0.498444" stroke-miterlimit="10" />
		<path d="M497.889 0.667725V498.495" stroke="white" stroke-width="0.498444" stroke-miterlimit="10" />
		<path d="M522.888 0.667725V498.495" stroke="white" stroke-width="0.498444" stroke-miterlimit="10" />
		<path d="M547.874 0.667725V498.495" stroke="white" stroke-width="0.498444" stroke-miterlimit="10" />
		<path d="M572.881 0.667725V498.495" stroke="white" stroke-width="0.498444" stroke-miterlimit="10" />
		<path d="M595.367 29.7104H0.497986" stroke="white" stroke-width="0.487261" stroke-miterlimit="10" />
		<path d="M595.367 66.3523H0.497986" stroke="white" stroke-width="0.487261" stroke-miterlimit="10" />
		<path d="M595.367 102.995H0.497986" stroke="white" stroke-width="0.487261" stroke-miterlimit="10" />
		<path d="M595.367 139.638H0.497986" stroke="white" stroke-width="0.487261" stroke-miterlimit="10" />
		<path d="M595.367 176.312H0.497986" stroke="white" stroke-width="0.487261" stroke-miterlimit="10" />
		<path d="M595.367 212.954H0.497986" stroke="white" stroke-width="0.487261" stroke-miterlimit="10" />
		<path d="M595.367 249.597H0.497986" stroke="white" stroke-width="0.487261" stroke-miterlimit="10" />
		<path d="M595.367 286.24H0.497986" stroke="white" stroke-width="0.487261" stroke-miterlimit="10" />
		<path d="M595.367 322.882H0.497986" stroke="white" stroke-width="0.487261" stroke-miterlimit="10" />
		<path d="M595.367 359.524H0.497986" stroke="white" stroke-width="0.487261" stroke-miterlimit="10" />
		<path d="M595.367 396.167H0.497986" stroke="white" stroke-width="0.487261" stroke-miterlimit="10" />
		<path d="M595.367 432.809H0.497986" stroke="white" stroke-width="0.487261" stroke-miterlimit="10" />
		<path d="M595.367 469.452H0.497986" stroke="white" stroke-width="0.487261" stroke-miterlimit="10" />
	</g>
</svg>