<svg width="138" height="37" viewBox="0 0 138 37" fill="none" xmlns="http://www.w3.org/2000/svg">
    <path fill-rule="evenodd" clip-rule="evenodd"
        d="M36.4587 33.9832C38.6401 26.0013 40.5828 17.8652 42.4515 9.80936C38.2544 11.6597 34.6255 13.9943 30.8439 16.5985C28.8247 13.1556 24.5955 8.54975 21.4917 6.06895C17.8149 9.62186 15.1475 12.889 12.2155 16.9604C9.10251 14.4134 5.97417 12.4093 2.31176 10.7086C3.44612 18.3829 5.08094 25.9333 7.14472 33.4095C11.01 33.1423 14.3623 32.1399 18.2475 32.0785C24.924 31.9724 29.8722 32.6429 36.4587 33.9832Z"
        stroke="url(#paint0_linear_1_1688)" stroke-width="4.35081" stroke-miterlimit="1.5"
        stroke-linecap="round" stroke-linejoin="round" />
    <path
        d="M93.6741 27.5935H107.177L100.878 10.6157H96.3918L92.3987 21.3308H93.7833C95.0163 21.3308 96.1177 20.5489 96.5243 19.3848L98.62 13.382L102.735 25.1793H90.9675L88.356 32.1874C90.6125 32.0893 92.605 30.6238 93.3606 28.4785L93.6741 27.5935Z"
        fill="white" />
    <path
        d="M101.109 10.2818H96.1583L91.9164 21.6634H93.7814C95.156 21.6634 96.3838 20.7916 96.837 19.4939L98.6171 14.3943L102.262 24.8454H90.734L87.8727 32.5261H88.1124C90.6086 32.5261 92.8438 30.9443 93.6742 28.5897L93.9079 27.9262H107.653L101.109 10.2818ZM88.3551 32.1873L90.9666 25.1791H102.734L98.6181 13.3819L96.5224 19.3847C96.1158 20.5488 95.0144 21.3307 93.7814 21.3307H92.3968L96.3899 10.6156H100.877L107.174 27.5934H93.6712L93.3587 28.4794C92.6041 30.6236 90.6116 32.0892 88.3551 32.1873Z"
        fill="white" />
    <path
        d="M70.9788 17.2365C70.9788 15.1995 70.3487 13.5701 69.1057 12.3948C67.8576 11.2145 65.947 10.6157 63.4275 10.6157H55.7225C55.8095 12.063 57.0141 13.2151 58.4837 13.2151H62.9481C64.5138 13.2151 65.6294 13.5569 66.3597 14.2599C67.0838 14.9628 67.451 15.9641 67.451 17.2365C67.451 18.346 67.1597 19.2462 66.5862 19.9107C65.8418 20.7745 64.6352 21.2175 62.9997 21.2266V23.7936H63.4285C65.863 23.7936 67.7534 23.1928 69.049 22.0084C70.3295 20.8372 70.9788 19.231 70.9788 17.2365Z"
        fill="white" />
    <path
        d="M69.3319 12.1531C68.0201 10.9121 66.0327 10.283 63.4252 10.283H55.3803V10.4499C55.3803 12.1592 56.771 13.5489 58.4793 13.5489H62.9438C64.4184 13.5489 65.4582 13.8604 66.1237 14.5006C66.7801 15.1378 67.1129 16.0593 67.1129 17.2376C67.1129 18.2642 66.8489 19.0915 66.329 19.6943C65.6422 20.4903 64.5034 20.8939 62.9428 20.8939H62.6606V24.1274H63.4232C65.9437 24.1274 67.9099 23.4973 69.2682 22.2553C70.6215 21.0173 71.3073 19.3292 71.3073 17.2366C71.3093 15.1045 70.6438 13.3941 69.3319 12.1531ZM62.9964 23.7936V21.2266C64.6318 21.2175 65.8385 20.7755 66.5829 19.9108C67.1564 19.2452 67.4476 18.3451 67.4476 17.2366C67.4476 15.9642 67.0805 14.9629 66.3563 14.2599C65.6261 13.557 64.5105 13.2151 62.9448 13.2151H58.4803C57.0117 13.2151 55.8061 12.0641 55.7191 10.6157H63.4252C65.9447 10.6157 67.8553 11.2145 69.1034 12.3948C70.3464 13.5701 70.9765 15.1995 70.9765 17.2366C70.9765 19.2311 70.3272 20.8362 69.0457 22.0085C67.7511 23.1928 65.8597 23.7936 63.4252 23.7936H62.9964Z"
        fill="white" />
    <path
        d="M56.2795 21.332H55.7182V32.1937H59.1823V24.2348C59.1823 22.6337 57.8806 21.332 56.2795 21.332Z"
        fill="white" />
    <path
        d="M56.2754 20.9981H55.3803V32.5264H59.512V24.2337C59.512 22.4495 58.0606 20.9981 56.2754 20.9981ZM59.1782 32.1926H55.7141V21.3319H56.2754C57.8755 21.3319 59.1782 22.6336 59.1782 24.2347V32.1926Z"
        fill="white" />
    <path
        d="M117.736 30.9909V32.1935H121.232V28.0881H120.639C119.038 28.0881 117.736 29.3898 117.736 30.9909Z"
        fill="white" />
    <path
        d="M117.402 30.991V32.5274H121.566V27.7545H120.639C118.854 27.7545 117.402 29.2059 117.402 30.991ZM121.232 32.1926H117.736V30.99C117.736 29.3899 119.038 28.0872 120.639 28.0872H121.232V32.1926Z"
        fill="white" />
    <path
        d="M114.374 10.6156H110.383L117.521 24.2699H119.68C120.766 24.2699 121.754 23.6711 122.255 22.7072L128.549 10.6156H124.652L119.513 21.2022L114.374 10.6156Z"
        fill="white" />
    <path
        d="M119.516 20.4387L114.586 10.282H109.836L117.275 24.5138L117.321 24.6038H119.683C120.895 24.6038 121.994 23.9362 122.553 22.8621L129.101 10.283H124.446L119.516 20.4387ZM128.552 10.6158L122.258 22.7084C121.756 23.6723 120.77 24.271 119.683 24.271H117.524L110.386 10.6168H114.377L119.516 21.2034L124.655 10.6168H128.552V10.6158Z"
        fill="white" />
    <path
        d="M77.7607 10.6154H74.2966V25.9689H74.8579C76.458 25.9689 77.7607 24.6672 77.7607 23.0661V10.6154Z"
        fill="white" />
    <path
        d="M78.0904 23.0663V10.2818H73.9587V26.3028H74.8538C76.6379 26.3028 78.0904 24.8514 78.0904 23.0663ZM74.8538 25.9691H74.2925V10.6156H77.7566V23.0663C77.7566 24.6674 76.4539 25.9691 74.8538 25.9691Z"
        fill="white" />
    <path
        d="M82.7855 29.7864H74.2966V32.1926H85.3535C85.2665 30.8515 84.1479 29.7864 82.7855 29.7864Z"
        fill="white" />
    <path
        d="M73.9587 32.5261H85.6882V32.3592C85.6882 30.7561 84.3845 29.4524 82.7814 29.4524H73.9587V32.5261ZM74.2925 29.7862H82.7814C84.1438 29.7862 85.2624 30.8512 85.3494 32.1923H74.2925V29.7862Z"
        fill="white" />
    <path d="M117.495 4.29837C117.844 4.76044 118.179 5.23665 118.537 5.69156" stroke="white"
        stroke-width="2.13196" stroke-miterlimit="1.5" stroke-linecap="round"
        stroke-linejoin="round" />
    <path d="M125.219 2C125.088 2.63056 125.007 3.26952 124.885 3.90147" stroke="white"
        stroke-width="2.13196" stroke-miterlimit="1.5" stroke-linecap="round"
        stroke-linejoin="round" />
    <path d="M130.353 7.31038C131.14 6.92276 131.885 6.45655 132.671 6.06714" stroke="white"
        stroke-width="2.13196" stroke-miterlimit="1.5" stroke-linecap="round"
        stroke-linejoin="round" />
    <path d="M133.399 15.0061C134.257 15.1347 135.129 15.2788 135.997 15.3302" stroke="white"
        stroke-width="2.13196" stroke-miterlimit="1.5" stroke-linecap="round"
        stroke-linejoin="round" />
    <defs>
        <linearGradient id="paint0_linear_1_1688" x1="2.09744" y1="26.3543" x2="40.9115"
            y2="27.1435" gradientUnits="userSpaceOnUse">
            <stop stop-color="#C1260F" />
            <stop offset="1" stop-color="#EE642A" />
        </linearGradient>
    </defs>
</svg>
    