<svg width="612" height="524" viewBox="0 0 612 524" fill="none" xmlns="http://www.w3.org/2000/svg">
	<path d="M611.85 35.0569V0.0541992H588.705L582.729 8.94678H520.374L514.418 0.0541992H411.582L405.605 8.94678H234.607L228.63 0.0541992H157.755L151.779 8.94678H89.424L83.4472 0.0541992H0.0252075V70.8165L6.00209 79.6775V172.451L0.0252075 181.343V242.929L6.00209 251.822V466.064L0.0252075 474.956V523.108H19.1639L25.1408 514.247H169.158L175.114 523.108H249.486L255.441 514.247H317.796L323.773 523.108H382.651L388.628 514.247H559.626L565.603 523.108H611.85V479.15L605.873 470.289V418.51L611.85 409.649V288.748L605.873 279.855V43.9495L611.85 35.0569Z" fill="url(#paint0_linear_1_1910)" />
	<defs>
		<linearGradient id="paint0_linear_1_1910" x1="0.0252065" y1="387.986" x2="591.999" y2="391.157" gradientUnits="userSpaceOnUse">
			<stop stop-color="#C1260F" />
			<stop offset="1" stop-color="#EE642A" />
		</linearGradient>
	</defs>
</svg>
